<svg width="403" height="403" viewBox="0 0 403 403" fill="none" xmlns="http://www.w3.org/2000/svg">
<rect width="403" height="403" rx="201.5" fill="url(#paint0_linear_62_1857)"/>
<mask id="mask0_62_1857" style="mask-type:alpha" maskUnits="userSpaceOnUse" x="0" y="0" width="403" height="403">
<rect width="403" height="403" rx="201.5" fill="url(#paint1_linear_62_1857)"/>
</mask>
<g mask="url(#mask0_62_1857)">
<path d="M361.799 -15.2506C338.214 17.6829 316.436 51.7849 296.463 87.0556C276.491 122.326 258.537 158.553 242.601 195.736C226.666 232.919 212.961 271.058 201.487 310.153C190.014 349.036 180.984 388.662 174.397 429.032C153.999 426.483 134.239 425.208 115.117 425.208C94.5068 425.208 74.0031 426.695 53.6056 429.67C33.2081 432.644 12.8106 437 -7.5869 442.737C-15.4484 406.829 -25.5409 369.327 -37.8644 330.232C-50.1879 290.924 -64.5299 251.829 -80.8904 212.946C-97.0384 173.851 -115.099 135.925 -135.071 99.1666C-155.044 62.1961 -176.822 28.2003 -200.407 -2.82087C-177.46 -0.271182 -153.663 1.00366 -129.016 1.00366C-102.881 1.00366 -77.1721 -1.01484 -51.8877 -5.05184C-26.3908 -9.30132 -3.01872 -16.6317 18.2287 -27.0429C20.5659 0.366239 23.1156 27.0317 25.8777 52.9535C28.8524 78.6629 32.5707 103.947 37.0326 128.807C41.4946 153.666 47.1251 178.207 53.9243 202.429C60.9359 226.651 69.5411 250.873 79.7398 275.095C102.899 227.076 119.579 178.738 129.777 130.082C139.976 81.2125 145.076 31.5999 145.076 -18.7564C184.383 -12.1697 223.691 -8.87637 262.999 -8.87637C279.572 -8.87637 296.038 -9.40756 312.399 -10.4699C328.759 -11.7448 345.226 -13.3383 361.799 -15.2506Z" fill="white"/>
<ellipse cx="350.849" cy="309.594" rx="114.159" ry="89.1176" transform="rotate(15.2734 350.849 309.594)" fill="white"/>
<path d="M229.122 374.534L342.812 362.488C348.85 361.849 349.398 353.271 343.492 351.868L270.773 334.59C269.254 334.229 267.653 334.543 266.384 335.452L225.411 364.776C220.901 368.003 223.606 375.118 229.122 374.534Z" fill="white"/>
<circle cx="296.91" cy="298.52" r="15.5521" transform="rotate(15.1595 296.91 298.52)" fill="#655DF3"/>
<circle cx="348.766" cy="312.57" r="15.5521" transform="rotate(15.1595 348.766 312.57)" fill="#655DF3"/>
<circle cx="400.621" cy="326.62" r="15.5521" transform="rotate(15.1595 400.621 326.62)" fill="#655DF3"/>
</g>
<defs>
<linearGradient id="paint0_linear_62_1857" x1="76.4098" y1="-29.578" x2="353.703" y2="460.307" gradientUnits="userSpaceOnUse">
<stop offset="0.168269" stop-color="#948DFF"/>
<stop offset="1" stop-color="#5C53F0"/>
</linearGradient>
<linearGradient id="paint1_linear_62_1857" x1="76.4098" y1="-29.578" x2="353.703" y2="460.307" gradientUnits="userSpaceOnUse">
<stop stop-color="#8A82FF"/>
<stop offset="1" stop-color="#5C53F0"/>
</linearGradient>
</defs>
</svg>
